<svg width="263" height="37" viewBox="0 0 263 37" fill="none" xmlns="http://www.w3.org/2000/svg">
<g clip-path="url(#clip0_134_13)">
<path d="M30 0H10V23H30V0Z" fill="#1A1A1A"/>
<path d="M20 24H0V37H20V24Z" fill="#1A1A1A"/>
<path d="M40 24H30V37H40V24Z" fill="#1A1A1A"/>
<path d="M45 0H35V23H45V0Z" fill="#1A1A1A"/>
<path d="M52 0H47V23H52V0Z" fill="#1A1A1A"/>
<path d="M52 24H45V37H52V24Z" fill="#1A1A1A"/>
</g>
<path d="M73.598 35.5C73.128 35.5 72.893 35.3277 72.893 34.983C72.893 34.701 73.0967 34.513 73.504 34.419L74.585 34.231C75.243 34.1057 75.666 33.9333 75.854 33.714C76.0733 33.4947 76.183 33.056 76.183 32.398V4.762C76.183 4.104 76.0733 3.66533 75.854 3.446C75.666 3.22667 75.243 3.05433 74.585 2.929L73.504 2.741C73.0967 2.647 72.893 2.459 72.893 2.177C72.893 1.83233 73.128 1.66 73.598 1.66H83.139C84.7057 1.66 86.1 1.989 87.322 2.647C88.544 3.305 89.4997 4.198 90.189 5.326C90.9097 6.454 91.27 7.73867 91.27 9.18C91.27 10.59 90.847 11.906 90.001 13.128C89.1863 14.3187 87.9957 15.3213 86.429 16.136C86.241 16.23 86.147 16.3553 86.147 16.512C86.147 16.6687 86.2567 16.7783 86.476 16.841C88.6067 17.5617 90.2517 18.721 91.411 20.319C92.5703 21.8857 93.15 23.75 93.15 25.912C93.15 27.7607 92.727 29.4213 91.881 30.894C91.035 32.3353 89.86 33.4633 88.356 34.278C86.8833 35.0927 85.207 35.5 83.327 35.5H73.598ZM82.011 16.183C83.6717 16.183 85.0503 15.5407 86.147 14.256C87.275 12.94 87.839 11.3107 87.839 9.368C87.839 7.42533 87.3063 5.85867 86.241 4.668C85.1757 3.446 83.7657 2.835 82.011 2.835C80.3503 2.835 79.52 3.46166 79.52 4.715V13.598C79.52 14.5067 79.708 15.1647 80.084 15.572C80.4913 15.9793 81.1337 16.183 82.011 16.183ZM82.716 34.325C84.7527 34.325 86.4133 33.5573 87.698 32.022C88.9827 30.4553 89.625 28.3717 89.625 25.771C89.625 23.1703 88.967 21.118 87.651 19.614C86.3663 18.11 84.6273 17.358 82.434 17.358C80.4913 17.358 79.52 18.1257 79.52 19.661V31.082C79.52 33.244 80.5853 34.325 82.716 34.325ZM103.836 35.923C102.332 35.923 100.984 35.4217 99.7935 34.419C98.6029 33.4163 97.6472 32.0063 96.9265 30.189C96.2372 28.3403 95.8925 26.2097 95.8925 23.797C95.8925 21.3217 96.2529 19.144 96.9735 17.264C97.6942 15.384 98.6812 13.9113 99.9345 12.846C101.188 11.7807 102.582 11.248 104.118 11.248C105.966 11.248 107.455 12.0157 108.583 13.551C109.742 15.055 110.322 17.5147 110.322 20.93C110.322 21.964 109.93 22.481 109.147 22.481H100.217C99.5899 22.481 99.2765 22.8413 99.2765 23.562C99.2765 26.8833 99.7622 29.3743 100.734 31.035C101.705 32.6957 102.943 33.526 104.447 33.526C105.637 33.526 106.609 33.103 107.361 32.257C108.113 31.411 108.724 29.9853 109.194 27.98C109.288 27.6353 109.491 27.463 109.805 27.463C110.181 27.463 110.322 27.7763 110.228 28.403C109.726 31.1917 108.927 33.15 107.831 34.278C106.734 35.3747 105.402 35.923 103.836 35.923ZM100.076 21.306H104.823C106.327 21.306 107.079 20.5227 107.079 18.956C107.079 16.9193 106.828 15.3213 106.327 14.162C105.825 13.0027 105.073 12.423 104.071 12.423C102.849 12.423 101.815 13.128 100.969 14.538C100.154 15.948 99.6212 17.9533 99.3705 20.554C99.3079 21.0553 99.5429 21.306 100.076 21.306ZM118.428 35.923C117.331 35.923 116.422 35.547 115.702 34.795C115.012 34.0117 114.668 32.7427 114.668 30.988V13.41C114.668 13.034 114.48 12.846 114.104 12.846H112.741C112.239 12.846 111.989 12.658 111.989 12.282C111.989 12.0313 112.13 11.812 112.412 11.624C113.446 10.9033 114.276 10.1357 114.903 9.321C115.529 8.475 116.078 7.33133 116.548 5.89C116.767 5.232 117.033 4.903 117.347 4.903C117.691 4.903 117.864 5.15367 117.864 5.655V10.872C117.864 11.3107 118.083 11.53 118.522 11.53H121.577C122.078 11.53 122.329 11.7493 122.329 12.188C122.329 12.6267 122.078 12.846 121.577 12.846H118.522C118.083 12.846 117.864 13.0653 117.864 13.504V31.035C117.864 31.7243 117.973 32.2727 118.193 32.68C118.412 33.056 118.819 33.244 119.415 33.244C120.073 33.244 120.605 32.915 121.013 32.257C121.451 31.599 121.733 30.5337 121.859 29.061C121.921 28.6223 122.125 28.403 122.47 28.403C122.846 28.403 123.034 28.638 123.034 29.108C122.94 31.5207 122.438 33.2597 121.53 34.325C120.652 35.3903 119.618 35.923 118.428 35.923ZM129.764 35.923C128.668 35.923 127.759 35.547 127.038 34.795C126.349 34.0117 126.004 32.7427 126.004 30.988V13.41C126.004 13.034 125.816 12.846 125.44 12.846H124.077C123.576 12.846 123.325 12.658 123.325 12.282C123.325 12.0313 123.466 11.812 123.748 11.624C124.782 10.9033 125.613 10.1357 126.239 9.321C126.866 8.475 127.414 7.33133 127.884 5.89C128.104 5.232 128.37 4.903 128.683 4.903C129.028 4.903 129.2 5.15367 129.2 5.655V10.872C129.2 11.3107 129.42 11.53 129.858 11.53H132.913C133.415 11.53 133.665 11.7493 133.665 12.188C133.665 12.6267 133.415 12.846 132.913 12.846H129.858C129.42 12.846 129.2 13.0653 129.2 13.504V31.035C129.2 31.7243 129.31 32.2727 129.529 32.68C129.749 33.056 130.156 33.244 130.751 33.244C131.409 33.244 131.942 32.915 132.349 32.257C132.788 31.599 133.07 30.5337 133.195 29.061C133.258 28.6223 133.462 28.403 133.806 28.403C134.182 28.403 134.37 28.638 134.37 29.108C134.276 31.5207 133.775 33.2597 132.866 34.325C131.989 35.3903 130.955 35.923 129.764 35.923ZM144.043 35.923C142.539 35.923 141.191 35.4217 140.001 34.419C138.81 33.4163 137.854 32.0063 137.134 30.189C136.444 28.3403 136.1 26.2097 136.1 23.797C136.1 21.3217 136.46 19.144 137.181 17.264C137.901 15.384 138.888 13.9113 140.142 12.846C141.395 11.7807 142.789 11.248 144.325 11.248C146.173 11.248 147.662 12.0157 148.79 13.551C149.949 15.055 150.529 17.5147 150.529 20.93C150.529 21.964 150.137 22.481 149.354 22.481H140.424C139.797 22.481 139.484 22.8413 139.484 23.562C139.484 26.8833 139.969 29.3743 140.941 31.035C141.912 32.6957 143.15 33.526 144.654 33.526C145.844 33.526 146.816 33.103 147.568 32.257C148.32 31.411 148.931 29.9853 149.401 27.98C149.495 27.6353 149.698 27.463 150.012 27.463C150.388 27.463 150.529 27.7763 150.435 28.403C149.933 31.1917 149.134 33.15 148.038 34.278C146.941 35.3747 145.609 35.923 144.043 35.923ZM140.283 21.306H145.03C146.534 21.306 147.286 20.5227 147.286 18.956C147.286 16.9193 147.035 15.3213 146.534 14.162C146.032 13.0027 145.28 12.423 144.278 12.423C143.056 12.423 142.022 13.128 141.176 14.538C140.361 15.948 139.828 17.9533 139.578 20.554C139.515 21.0553 139.75 21.306 140.283 21.306ZM158.964 14.538C160.248 12.3447 161.799 11.248 163.617 11.248C164.651 11.248 165.418 11.5613 165.92 12.188C166.421 12.7833 166.672 13.457 166.672 14.209C166.672 14.8043 166.515 15.29 166.202 15.666C165.92 16.042 165.465 16.23 164.839 16.23C164.337 16.23 163.961 16.1203 163.711 15.901C163.491 15.6503 163.303 15.3683 163.147 15.055C163.021 14.7417 162.865 14.4753 162.677 14.256C162.489 14.0053 162.175 13.88 161.737 13.88C161.173 13.88 160.64 14.2247 160.139 14.914C159.637 15.572 159.214 16.465 158.87 17.593C158.556 18.721 158.4 20.0057 158.4 21.447V32.351C158.4 33.009 158.494 33.479 158.682 33.761C158.901 34.043 159.34 34.2153 159.998 34.278L161.267 34.419C161.611 34.4817 161.784 34.654 161.784 34.936C161.784 35.312 161.549 35.5 161.079 35.5H153.136C152.666 35.5 152.431 35.3277 152.431 34.983C152.431 34.701 152.634 34.513 153.042 34.419L153.606 34.325C154.264 34.1997 154.687 34.0117 154.875 33.761C155.094 33.479 155.204 33.009 155.204 32.351V16.559C155.204 15.995 155.11 15.619 154.922 15.431C154.765 15.2117 154.467 15.0707 154.029 15.008L153.042 14.867C152.634 14.8357 152.431 14.6633 152.431 14.35C152.431 14.0993 152.681 13.927 153.183 13.833C154.154 13.6763 154.89 13.4257 155.392 13.081C155.924 12.7363 156.473 12.3133 157.037 11.812C157.319 11.53 157.554 11.389 157.742 11.389C158.024 11.389 158.165 11.577 158.165 11.953V14.491C158.165 14.7103 158.259 14.8513 158.447 14.914C158.635 14.9453 158.807 14.82 158.964 14.538ZM176.273 35.5C175.803 35.5 175.568 35.3277 175.568 34.983C175.568 34.701 175.771 34.513 176.179 34.419L177.26 34.231C177.918 34.1057 178.341 33.9333 178.529 33.714C178.748 33.4947 178.858 33.056 178.858 32.398V4.762C178.858 4.104 178.748 3.66533 178.529 3.446C178.341 3.22667 177.918 3.05433 177.26 2.929L176.179 2.741C175.771 2.647 175.568 2.459 175.568 2.177C175.568 1.83233 175.803 1.66 176.273 1.66H185.814C187.38 1.66 188.775 1.989 189.997 2.647C191.219 3.305 192.174 4.198 192.864 5.326C193.584 6.454 193.945 7.73867 193.945 9.18C193.945 10.59 193.522 11.906 192.676 13.128C191.861 14.3187 190.67 15.3213 189.104 16.136C188.916 16.23 188.822 16.3553 188.822 16.512C188.822 16.6687 188.931 16.7783 189.151 16.841C191.281 17.5617 192.926 18.721 194.086 20.319C195.245 21.8857 195.825 23.75 195.825 25.912C195.825 27.7607 195.402 29.4213 194.556 30.894C193.71 32.3353 192.535 33.4633 191.031 34.278C189.558 35.0927 187.882 35.5 186.002 35.5H176.273ZM184.686 16.183C186.346 16.183 187.725 15.5407 188.822 14.256C189.95 12.94 190.514 11.3107 190.514 9.368C190.514 7.42533 189.981 5.85867 188.916 4.668C187.85 3.446 186.44 2.835 184.686 2.835C183.025 2.835 182.195 3.46166 182.195 4.715V13.598C182.195 14.5067 182.383 15.1647 182.759 15.572C183.166 15.9793 183.808 16.183 184.686 16.183ZM185.391 34.325C187.427 34.325 189.088 33.5573 190.373 32.022C191.657 30.4553 192.3 28.3717 192.3 25.771C192.3 23.1703 191.642 21.118 190.326 19.614C189.041 18.11 187.302 17.358 185.109 17.358C183.166 17.358 182.195 18.1257 182.195 19.661V31.082C182.195 33.244 183.26 34.325 185.391 34.325ZM204.357 14.538C205.642 12.3447 207.193 11.248 209.01 11.248C210.044 11.248 210.812 11.5613 211.313 12.188C211.814 12.7833 212.065 13.457 212.065 14.209C212.065 14.8043 211.908 15.29 211.595 15.666C211.313 16.042 210.859 16.23 210.232 16.23C209.731 16.23 209.355 16.1203 209.104 15.901C208.885 15.6503 208.697 15.3683 208.54 15.055C208.415 14.7417 208.258 14.4753 208.07 14.256C207.882 14.0053 207.569 13.88 207.13 13.88C206.566 13.88 206.033 14.2247 205.532 14.914C205.031 15.572 204.608 16.465 204.263 17.593C203.95 18.721 203.793 20.0057 203.793 21.447V32.351C203.793 33.009 203.887 33.479 204.075 33.761C204.294 34.043 204.733 34.2153 205.391 34.278L206.66 34.419C207.005 34.4817 207.177 34.654 207.177 34.936C207.177 35.312 206.942 35.5 206.472 35.5H198.529C198.059 35.5 197.824 35.3277 197.824 34.983C197.824 34.701 198.028 34.513 198.435 34.419L198.999 34.325C199.657 34.1997 200.08 34.0117 200.268 33.761C200.487 33.479 200.597 33.009 200.597 32.351V16.559C200.597 15.995 200.503 15.619 200.315 15.431C200.158 15.2117 199.861 15.0707 199.422 15.008L198.435 14.867C198.028 14.8357 197.824 14.6633 197.824 14.35C197.824 14.0993 198.075 13.927 198.576 13.833C199.547 13.6763 200.284 13.4257 200.785 13.081C201.318 12.7363 201.866 12.3133 202.43 11.812C202.712 11.53 202.947 11.389 203.135 11.389C203.417 11.389 203.558 11.577 203.558 11.953V14.491C203.558 14.7103 203.652 14.8513 203.84 14.914C204.028 14.9453 204.2 14.82 204.357 14.538ZM216.896 35.923C215.58 35.923 214.499 35.5157 213.653 34.701C212.807 33.855 212.384 32.7427 212.384 31.364C212.384 30.0167 212.807 28.7477 213.653 27.557C214.499 26.335 215.658 25.2383 217.131 24.267C218.604 23.2957 220.28 22.5123 222.16 21.917C222.567 21.7917 222.771 21.5253 222.771 21.118V16.841C222.771 15.337 222.536 14.2717 222.066 13.645C221.596 12.987 220.954 12.658 220.139 12.658C219.356 12.658 218.635 13.0183 217.977 13.739C217.35 14.4283 216.896 15.6033 216.614 17.264C216.457 18.2667 216.113 19.003 215.58 19.473C215.079 19.9117 214.562 20.131 214.029 20.131C213.152 20.131 212.713 19.6923 212.713 18.815C212.713 17.9063 212.964 17.0133 213.465 16.136C213.998 15.2273 214.687 14.4127 215.533 13.692C216.379 12.94 217.303 12.3447 218.306 11.906C219.309 11.4673 220.311 11.248 221.314 11.248C224.416 11.248 225.967 13.0497 225.967 16.653V31.035C225.967 32.351 226.296 33.009 226.954 33.009C227.361 33.009 227.737 32.7427 228.082 32.21C228.427 31.646 228.599 30.706 228.599 29.39C228.599 28.8887 228.803 28.638 229.21 28.638C229.586 28.638 229.774 28.9043 229.774 29.437C229.774 31.7243 229.367 33.385 228.552 34.419C227.769 35.4217 226.876 35.923 225.873 35.923C225.121 35.923 224.526 35.6253 224.087 35.03C223.648 34.4033 223.351 33.667 223.194 32.821C223.163 32.5077 223.022 32.351 222.771 32.351C222.552 32.3197 222.332 32.4607 222.113 32.774C221.361 33.808 220.593 34.5913 219.81 35.124C219.027 35.6567 218.055 35.923 216.896 35.923ZM218.165 33.761C218.98 33.761 219.732 33.479 220.421 32.915C221.11 32.3197 221.674 31.5363 222.113 30.565C222.552 29.5937 222.771 28.497 222.771 27.275V23.844C222.771 23.2487 222.442 23.0763 221.784 23.327C219.873 24.0163 218.384 24.972 217.319 26.194C216.285 27.3847 215.768 28.826 215.768 30.518C215.768 32.68 216.567 33.761 218.165 33.761ZM235.386 7.065C234.728 7.065 234.164 6.83 233.694 6.36C233.256 5.89 233.036 5.29466 233.036 4.574C233.036 3.85333 233.256 3.27366 233.694 2.835C234.164 2.365 234.728 2.13 235.386 2.13C236.044 2.13 236.593 2.365 237.031 2.835C237.47 3.27366 237.689 3.85333 237.689 4.574C237.689 5.29466 237.47 5.89 237.031 6.36C236.593 6.83 236.044 7.065 235.386 7.065ZM231.438 35.5C230.968 35.5 230.733 35.3277 230.733 34.983C230.733 34.701 230.937 34.513 231.344 34.419L231.908 34.325C232.692 34.1997 233.193 34.0117 233.412 33.761C233.632 33.479 233.741 33.009 233.741 32.351V16.559C233.741 15.995 233.647 15.619 233.459 15.431C233.303 15.2117 233.005 15.0707 232.566 15.008L231.579 14.867C231.172 14.8357 230.968 14.6633 230.968 14.35C230.968 14.0993 231.219 13.927 231.72 13.833C232.692 13.6763 233.475 13.4257 234.07 13.081C234.666 12.7363 235.245 12.3133 235.809 11.812C236.091 11.53 236.326 11.389 236.514 11.389C236.796 11.389 236.937 11.577 236.937 11.953V32.351C236.937 33.009 237.031 33.479 237.219 33.761C237.407 34.043 237.768 34.2153 238.3 34.278L239.475 34.419C239.82 34.4817 239.992 34.654 239.992 34.936C239.992 35.312 239.757 35.5 239.287 35.5H231.438ZM241.903 35.5C241.433 35.5 241.198 35.3277 241.198 34.983C241.198 34.701 241.402 34.513 241.809 34.419L242.373 34.325C243.031 34.1997 243.454 34.0117 243.642 33.761C243.861 33.479 243.971 33.009 243.971 32.351V16.559C243.971 15.995 243.877 15.619 243.689 15.431C243.532 15.2117 243.235 15.0707 242.796 15.008L241.809 14.867C241.402 14.8357 241.198 14.6633 241.198 14.35C241.198 14.0993 241.449 13.927 241.95 13.833C242.921 13.6763 243.658 13.4257 244.159 13.081C244.692 12.7363 245.24 12.3133 245.804 11.812C246.086 11.53 246.321 11.389 246.509 11.389C246.791 11.389 246.932 11.577 246.932 11.953V14.068C246.932 14.35 247.026 14.538 247.214 14.632C247.433 14.6947 247.668 14.6007 247.919 14.35C249.172 13.1593 250.269 12.3447 251.209 11.906C252.18 11.4673 253.199 11.248 254.264 11.248C255.674 11.248 256.802 11.7493 257.648 12.752C258.494 13.7233 258.917 15.1647 258.917 17.076V32.351C258.917 33.009 259.011 33.479 259.199 33.761C259.418 34.0117 259.857 34.184 260.515 34.278L261.549 34.419C261.894 34.4817 262.066 34.6697 262.066 34.983C262.066 35.3277 261.878 35.5 261.502 35.5H253.606C253.167 35.5 252.948 35.3277 252.948 34.983C252.948 34.6697 253.12 34.4817 253.465 34.419L254.123 34.325C254.781 34.231 255.204 34.043 255.392 33.761C255.611 33.479 255.721 33.009 255.721 32.351V17.593C255.721 16.0577 255.439 14.9767 254.875 14.35C254.311 13.7233 253.512 13.41 252.478 13.41C251.475 13.41 250.567 13.7077 249.752 14.303C248.969 14.867 248.342 15.6347 247.872 16.606C247.402 17.546 247.167 18.5957 247.167 19.755V32.351C247.167 33.009 247.261 33.479 247.449 33.761C247.668 34.043 248.107 34.2153 248.765 34.278L250.034 34.419C250.379 34.4817 250.551 34.654 250.551 34.936C250.551 35.312 250.316 35.5 249.846 35.5H241.903Z" fill="black"/>
<defs>
<clipPath id="clip0_134_13">
<rect width="52" height="37" fill="white"/>
</clipPath>
</defs>
</svg>
